<?xml version="1.0" encoding="UTF-8" standalone="no" ?>
<!DOCTYPE svg PUBLIC "-//W3C//DTD SVG 1.1//EN" "http://www.w3.org/Graphics/SVG/1.1/DTD/svg11.dtd">
<svg xmlns="http://www.w3.org/2000/svg" xmlns:xlink="http://www.w3.org/1999/xlink" version="1.1" width="140.96730468750002" height="109.57792" xml:space="preserve">
<desc>Created with Fabric.js 1.6.0-rc.1</desc>
<defs></defs>
<g style="stroke: none; stroke-width: 1; stroke-dasharray: none; stroke-linecap: butt; stroke-linejoin: miter; stroke-miterlimit: 10; fill: none; fill-rule: nonzero; opacity: 1;" transform="translate(9.999999999999996 10) scale(0.1 0.12)" >
  <path d="M 1.336 324.922 l 52.267 -109.867 C 54.67 74.256 189.07 -34.544 336.27 11.322 c 88.533 26.667 146.133 110.933 146.133 203.733 l 0 0 c 0 43.733 -12.8 84.267 -35.2 118.4 c -29.867 44.8 -49.067 97.067 -55.467 150.4 H 130.403 v -53.333 h -44.8 c -17.067 0 -30.933 -13.867 -30.933 -30.933 v -54.4 H 14.136 C 3.47 344.122 -2.93 333.456 1.336 324.922 z" style="stroke: none; stroke-width: 1; stroke-dasharray: none; stroke-linecap: butt; stroke-linejoin: miter; stroke-miterlimit: 10; fill: #F3F3F3; fill-rule: nonzero; opacity: 1;" transform=" matrix(1 0 0 1 0 0) " stroke-linecap="round" />
  <path d="M 370.403 426.256 l 57.6 68.267 c 17.067 20.267 46.933 23.467 67.2 6.4 c 20.267 -17.067 23.467 -46.933 6.4 -67.2 l -57.6 -68.267 L 370.403 426.256 z" style="stroke: none; stroke-width: 1; stroke-dasharray: none; stroke-linecap: butt; stroke-linejoin: miter; stroke-miterlimit: 10; fill: #F3705A; fill-rule: nonzero; opacity: 1;" transform=" matrix(1 0 0 1 0 0) " stroke-linecap="round" />
  <rect x="402.41" y="356.29" rx="0" ry="0" width="23.46" height="96" style="stroke: none; stroke-width: 1; stroke-dasharray: none; stroke-linecap: butt; stroke-linejoin: miter; stroke-miterlimit: 10; fill: #F05540; fill-rule: nonzero; opacity: 1;" transform=" matrix(0.6394 0.7688 -0.7688 0.6394 460.1592 -172.6423) "/>
  <rect x="354.88" y="333.02" rx="0" ry="0" width="51.2" height="60.8" style="stroke: none; stroke-width: 1; stroke-dasharray: none; stroke-linecap: butt; stroke-linejoin: miter; stroke-miterlimit: 10; fill: #415A6B; fill-rule: nonzero; opacity: 1;" transform=" matrix(0.6394 0.7688 -0.7688 0.6394 416.6015 -161.4962) "/>
  <path d="M 447.203 368.656 l -73.6 61.867 c -7.467 6.4 -19.2 5.333 -25.6 -2.133 c -6.4 -7.467 -5.333 -19.2 2.133 -25.6 l 73.6 -61.867 c 7.467 -6.4 19.2 -5.333 25.6 2.133 C 455.736 350.522 454.67 362.256 447.203 368.656 z" style="stroke: none; stroke-width: 1; stroke-dasharray: none; stroke-linecap: butt; stroke-linejoin: miter; stroke-miterlimit: 10; fill: #F3705A; fill-rule: nonzero; opacity: 1;" transform=" matrix(1 0 0 1 0 0) " stroke-linecap="round" />
  <circle cx="269.067" cy="226.787" r="145.067" style="stroke: none; stroke-width: 1; stroke-dasharray: none; stroke-linecap: butt; stroke-linejoin: miter; stroke-miterlimit: 10; fill: #FFFFFF; fill-rule: nonzero; opacity: 1;" transform="  matrix(1 0 0 1 0 0) "/>
  <path d="M 351.203 237.456 c -3.2 0 -6.4 -2.133 -8.533 -5.333 l -9.6 -21.333 l -6.4 20.267 c -1.067 4.267 -4.267 6.4 -8.533 6.4 h -37.333 l -12.8 19.2 c -2.133 3.2 -5.333 4.267 -8.533 4.267 c -3.2 -1.067 -6.4 -3.2 -7.467 -6.4 l -16 -61.867 l -20.267 97.067 c -1.067 4.267 -4.267 6.4 -7.467 7.467 c -4.267 0 -7.467 -2.133 -9.6 -5.333 l -22.4 -53.333 h -42.667 v -18.133 h 48 c 3.2 0 6.4 2.133 8.533 5.333 l 13.867 33.067 l 22.4 -106.667 c 1.067 -4.267 4.267 -7.467 8.533 -7.467 l 0 0 c 4.267 0 7.467 3.2 8.533 6.4 l 20.267 78.933 l 4.267 -6.4 c 2.133 -2.133 4.267 -4.267 7.467 -4.267 h 36.267 l 10.667 -35.2 c 1.067 -3.2 4.267 -6.4 7.467 -6.4 c 4.267 0 7.467 2.133 8.533 5.333 l 17.067 36.267 h 45.867 v 18.133 L 351.203 237.456 L 351.203 237.456 z" style="stroke: none; stroke-width: 1; stroke-dasharray: none; stroke-linecap: butt; stroke-linejoin: miter; stroke-miterlimit: 10; fill: #415A6B; fill-rule: nonzero; opacity: 1;" transform=" matrix(1 0 0 1 0 0) " stroke-linecap="round" />
  <path d="M 254.136 389.989 c -89.6 -8.533 -156.8 -88.533 -148.267 -178.133 c 4.267 -43.733 24.533 -83.2 58.667 -110.933 s 75.733 -41.6 119.467 -37.333 c 89.6 8.533 156.8 88.533 148.267 178.133 C 423.736 332.389 343.736 398.522 254.136 389.989 z M 280.803 100.922 c -34.133 -3.2 -66.133 7.467 -92.8 28.8 c -25.6 21.333 -41.6 52.267 -44.8 85.333 c -6.4 69.333 44.8 131.2 114.133 137.6 s 131.2 -44.8 137.6 -114.133 S 350.136 107.322 280.803 100.922 z" style="stroke: none; stroke-width: 1; stroke-dasharray: none; stroke-linecap: butt; stroke-linejoin: miter; stroke-miterlimit: 10; fill: #8AD7F8; fill-rule: nonzero; opacity: 1;" transform=" matrix(1 0 0 1 0 0) " stroke-linecap="round" />
</g>
  <g transform="translate(91.38 51.58) scale(0.67 0.54)">
   <text font-family="ADAMCG PRO" font-size="40" font-weight="normal" style="stroke: none; stroke-width: 1; stroke-dasharray: none; stroke-linecap: butt; stroke-linejoin: miter; stroke-miterlimit: 10; fill: #000000; fill-rule: nonzero; opacity: 1;" ><tspan x="-59.58" y="-17.23" style="stroke: none; stroke-width: 0; stroke-dasharray: none; stroke-linecap: butt; stroke-linejoin: miter; stroke-miterlimit: 4; fill: #000000; fill-rule: ; opacity: 1;">v</tspan><tspan x="-31.28" y="-17.23" style="stroke: none; stroke-width: 0; stroke-dasharray: none; stroke-linecap: butt; stroke-linejoin: miter; stroke-miterlimit: 4; fill: #000000; fill-rule: ; opacity: 1;">i</tspan><tspan x="-20.5" y="-17.23" style="stroke: none; stroke-width: 0; stroke-dasharray: none; stroke-linecap: butt; stroke-linejoin: miter; stroke-miterlimit: 4; fill: #000000; fill-rule: ; opacity: 1;">e</tspan><tspan x="2.76" y="-17.23" style="stroke: none; stroke-width: 0; stroke-dasharray: none; stroke-linecap: butt; stroke-linejoin: miter; stroke-miterlimit: 4; fill: #000000; fill-rule: ; opacity: 1;">w</tspan><tspan x="47.59" y="-17.23" style="stroke: none; stroke-width: 0; stroke-dasharray: none; stroke-linecap: butt; stroke-linejoin: miter; stroke-miterlimit: 4; fill: #000000; fill-rule: ; opacity: 1;"> </tspan><tspan x="-59.58" y="35.2" style="stroke: none; stroke-width: 0; stroke-dasharray: none; stroke-linecap: butt; stroke-linejoin: miter; stroke-miterlimit: 4; fill: #000000; fill-rule: ; opacity: 1;"> </tspan></text>
 </g>
  <g transform="translate(88.63 72.05) scale(0.67 0.53)">
   <text font-family="ADAMCG PRO" font-size="40" font-weight="normal" style="stroke: none; stroke-width: 1; stroke-dasharray: none; stroke-linecap: butt; stroke-linejoin: miter; stroke-miterlimit: 10; fill: #000000; fill-rule: nonzero; opacity: 1;" ><tspan x="-34.68" y="-17.23" style="stroke: none; stroke-width: 0; stroke-dasharray: none; stroke-linecap: butt; stroke-linejoin: miter; stroke-miterlimit: 4; fill: #000000; fill-rule: ; opacity: 1;">m</tspan><tspan x="-0.58" y="-17.23" style="stroke: none; stroke-width: 0; stroke-dasharray: none; stroke-linecap: butt; stroke-linejoin: miter; stroke-miterlimit: 4; fill: #000000; fill-rule: ; opacity: 1;">e</tspan><tspan x="22.69" y="-17.23" style="stroke: none; stroke-width: 0; stroke-dasharray: none; stroke-linecap: butt; stroke-linejoin: miter; stroke-miterlimit: 4; fill: #000000; fill-rule: ; opacity: 1;"> </tspan><tspan x="-34.68" y="35.2" style="stroke: none; stroke-width: 0; stroke-dasharray: none; stroke-linecap: butt; stroke-linejoin: miter; stroke-miterlimit: 4; fill: #000000; fill-rule: ; opacity: 1;"> </tspan></text>
 </g>
</svg>